<svg width="40" height="40" fill="none" xmlns="http://www.w3.org/2000/svg"><path d="M30 6.667h-1.667V5A1.667 1.667 0 0 0 25 5v1.667H15V5a1.667 1.667 0 1 0-3.333 0v1.667H10a5 5 0 0 0-5 5v20a5 5 0 0 0 5 5h20a5 5 0 0 0 5-5v-20a5 5 0 0 0-5-5ZM10 10h1.667v1.667a1.667 1.667 0 0 0 3.333 0V10h10v1.667a1.667 1.667 0 1 0 3.333 0V10H30a1.667 1.667 0 0 1 1.667 1.667v6.666H8.333v-6.666A1.667 1.667 0 0 1 10 10Zm20 23.333H10a1.667 1.667 0 0 1-1.667-1.666v-10h23.334v10A1.667 1.667 0 0 1 30 33.333Z" fill="#39482F"/><path d="M13.333 28.333a1.667 1.667 0 1 0 0-3.333 1.667 1.667 0 0 0 0 3.333ZM26.667 25H20a1.666 1.666 0 1 0 0 3.333h6.667a1.667 1.667 0 0 0 0-3.333Z" fill="#39482F"/></svg>