<svg width="35" height="35" fill="none" xmlns="http://www.w3.org/2000/svg"><path d="M32.792 16.042H5.958c-.874 0-1.583.62-1.583 1.385v.146c0 .765.709 1.385 1.583 1.385h26.834c.874 0 1.583-.62 1.583-1.385v-.146c0-.765-.709-1.385-1.583-1.385ZM32.792 23.333H5.958c-.874 0-1.583.62-1.583 1.386v.145c0 .766.709 1.386 1.583 1.386h26.834c.874 0 1.583-.62 1.583-1.386v-.145c0-.766-.709-1.386-1.583-1.386ZM32.792 8.75H5.958c-.874 0-1.583.62-1.583 1.385v.146c0 .765.709 1.386 1.583 1.386h26.834c.874 0 1.583-.62 1.583-1.386v-.146c0-.765-.709-1.385-1.583-1.385Z" fill="#39482F"/></svg>